<mxfile host="app.diagrams.net" modified="2022-10-06T06:44:39.776Z" agent="5.0 (Windows NT 10.0; Win64; x64) AppleWebKit/537.36 (KHTML, like Gecko) Chrome/105.0.0.0 Safari/537.36" etag="gsZHxQj6r4jsGOzJmmbU" version="20.2.7" type="github">
  <diagram id="2nHI54om172a_KPNyVsi" name="페이지-1">
    <mxGraphModel dx="1385" dy="635" grid="1" gridSize="10" guides="1" tooltips="1" connect="1" arrows="1" fold="1" page="1" pageScale="1" pageWidth="827" pageHeight="1169" math="0" shadow="0">
      <root>
        <mxCell id="0" />
        <mxCell id="1" parent="0" />
        <mxCell id="DsmTkCZuP_f7NbJFpk3H-1" value="" style="shape=image;verticalLabelPosition=bottom;labelBackgroundColor=default;verticalAlign=top;aspect=fixed;imageAspect=0;image=data:image/png,iVBORw0KGgoAAAANSUhEUgAAAoAAAAG/CAYAAADICWbGAAAABmJLR0QA/wD/AP+gvaeTAAAYy0lEQVR4nO3de7BuZ0Hf8e/JnZAEDBCuEoiEOwg4kZvYIFZQ0IrirdKotFXbCnRGKzOWmcbWUcapY0VtB9uioXhFvIBVKAyiREAQhVSRAAKRSwOEEBIhkNvpHytHz37Xe05yztlnP/vd6/OZWZO875y992+vdWbv33nWep6nAAAAAAAAAAAAAAAAAAAAAAAAAAAAAAAAAAAAAAAAAAAAAAAAAAAAAAAAAAAAAAAAAAAAAAAAAAAAAAAAAAAAAAAAAAAAAAAAAAAAAAAAAAAAAAAAAAAAAAAAAAAAAAAAAAAAAAAAAAAAAGBP2jc6AMBx8sXVOdUZ1Vkrx4nVtSvHZ6pPV1dUNw/IC7BjFEBg051bPbF60K3HA2897niUn+8L1fury6v33nr8afXuY04KsEsogMCmuXf15FuPC6vzdujrXlm9sfrDW//73h36ugAAi3R+9aPVe6r9u+T4cPXT1WOO4/cNALAoZ1f/qnpz21fabqiuvvW4fhs/719WP1zd57icCYBt5hYwsNt8afWC6puqU4/g465uui37nrY+v3dtdd2tx00rH7OvunN1enVm9YC2Pkf44OoeR5Dhlup11YuabhMDAHAYT6he3VSibs+o2yeqV1T/unroccx1bvXd1SXV397ObPubRi6fkX9oAwDMfEXTxIrbU6r+vPrB6hGNK1YPqL6vaYTv5m4787uqbxwRFABgt7lv04jfbRWo9zXdEr7vmJiHdXb1vdWl3fb38UfVw8fEBAAY68Sm27ZXd/jC9MfV06sTxsQ8Yo+vfrvD38K+vmk28x0GZQQA2HGPrv6swxe/36+eNCrgNnhY9fLqxg79Pf5N9dRRAQEAdsK+6rnV5zt0KXplU0HcK86rXtI083jd93tL9ZPVyaMCAgAcL2dXv9Ohi9/729ujYY+p3tahv/+3VvcbFQ4AYLs9tfp464vPddXzW8YI2L7qoqalaw51Lv7ZsHQAANvkWU07b6wrPG9rWmR5ae5ZvapDjwb+WNYNBAA21A+0fo28W6qfqU4ZF224fdUPdehy/AtNM6UBADbCCU0Fb12xubJ6yrhou85jmtY4XHeuXte0NR0AwK52UvWLHXo3jPPGRdu17lK9tvXn7I3VnYYlAwC4DfuqX259kXlDiszhnNy0z/C6c/fm6vRx0QAADu2nWl9gfr06dWCuTbGv+onWn8NXNY2uAgDsGi9sfXG5ODNaj9R3t34HkV9pc7bEAwD2uGe3fu/bnxoZasN9b+vP6X8cGQoAoOrC1i9lcklG/o7Vv2/9qOr3jAwFACzb3aqPNi8or87zatvlxc3P72erh40MBQAs0wnVHzQvJ5dmxup2OqHp2b/V8/yXOc8AwA57QfNS8rHq7iND7VGnVX/R/Hz/j5GhAIBleULz5/5uanoekOPj/OozzUvgd44MBQAswx2rK5oXkX83MtRCPKP5zOBrq3uPDAUA7H3/oXn5e23Wp9spP9/8/L98aCIAYE/7kur6tpaPa6p7jAy1MKdV723rNbilevLIUADA3vW65qNP3z800TJ9ZfNbwe9rKocAANvmmc3L3zuqE0eGWrDfaH49XjA0EQCwp+yr3tXWsnFz9diRoRbuPk0TQA6+JldVZ4wMBQDsHV/ffLTpJUMTUfWDza/LDw1NBADsCfuqP2++Fdk5I0NR1cnVB9t6bT6eHUIAgGP0Nc1HmV48NBEH+zfNr89zhyYCADbe69taLm6o7jcyEFucXn2irdfog02jgwAAR+whzUeXLhmaiHV+pPl1eubQRADAxvqJ5gsOP2RoIta5U/N9gn9raCIAYCOdWH20raXiD4cm4nD+W1uv1Y3V3YcmAgA2zlOb31b8nqGJOJwnZDIIAHCMXt7WMnFdFhne7S5v6zV729g4AMAmOa2p8B1cJn5taCJujx9tPgp43tBEAMDGeHLzIvH0oYm4Pc5vft2+b2giAGBj/FhbS8TnqlOHJuL2endbr91vjI0DAGyKN7e1RLxubByOwM+19dpdVZ0wNBGwa/nhABxwVnXBynuWf9kcb1h5fZfq4SOCALufAggc8MTqpJX3VksFu9cbqptX3vuqEUGA3U8BBA547Mrr66p3jAjCUbmmumzlvceNCALsfgogcMCDV17/RdOuEmyOt6+8Xr2mAJUCCPyD1bLwniEpOBar1+yB+TkPrOEHA1DTz4IHrrx3+YggHJPVa3aH6otHBAF2NwUQqLpPU1k4mAK4edZdswfteApg11MAgVpfEhTAzfOh6gsr73kOEJhRAIGa3ya8qalMsFlurj648t59RwQBdjcFEKhpEeiDXddUAtk8V668vuuQFMCupgACVWeuvL5uSAq2w1UrrxVAYEYBBKrOWHn9d0NSsB2uWXm9OroLoAAClRHAveTzK69PHZIC2NUUQKAUwL1kdRawAgjMKIBA1Ukrr00A2Vw3r7z2cx6Y8YMBqPkzf6vPBLI5Vkf8bhiSAtjVFECg5rd8V28JszlWC+DqLWEABRCojADuJavX7nNDUgC7mgIIlBHAvWR13b9PDUkB7GoKIFDzAmgEcHPdZeW1AgjMKIBAzUvC6c2LBJvhfiuvPz4iBLC7KYBA1eVr3nvwjqfgWN2lutvKe+8ZEQTY3RRAoOp91S0r7z1oRBCOybprtq7cAwunAAJV11cfXnlPAdw8q9fsluq9I4IAu5sCCBywOlKkAG6e1Wv2kaZyD7CFAggcsDpS9NAhKTgWq9fM6B+wlgIIHPCuldfnV/ceEYSjcmL1pJX3Vq8pAMAW51X7V47vGpqII/HY5tfva4cmAnYtI4DAAR+oPrTy3lcNyMHRWb1WN1ZvGhEEANgsv9jWEaSPjo3DEXh9W6/dpWPjALuZEUDgYH+08vpeTc8CsrudVj1+5b3Vawnw9xRA4GBvWPPet+54Co7U1zdt33ewPxwRBADYTO9o663Evx4bh9vhd9t6zT5VnTI0EQCwUX6g+WzSxw1NxOHcvWnCx8HX68VDEwEAG+fs6vNtLRQ/PzQRh/O85oX9gqGJAICN9Oq2FopPVCcPTcShvKWt12p1Sz8AgNvlW5qPKn3P0ESs84Tm1+mFQxMBABvrtKZRv4OLxXubthtj9/j9tl6jG6tzhyYCADbaC5qPLl00NBEHWzf699KhiQCAjXdmdXXzJWGsH7o7rD6neVP1JUMTAQB7wo83H2X6lqGJqHpUdUtbr8srhyYCAPaMc6rPtrVoXFHdcWSohdvXtM/vajH/spGhAIC95b80LxsvGppo2Z7T/Hr8/tBEAMCec1b1seazTb90ZKiFOqf5c5nXV+ePDAUA7E0XNR91urTpdiQ756XNr8N/GpoIANiz9lV/0rx8/PORoRbmH1U353lMAGAHfWnTrd+DC8hnq4ePDLUQ51QfbV7AnzkyFACwDD/ZvIS8uzpjZKg97oTq/zQ/778zMhQAsBwnVW9qXkZ+Y2SoPe7Hmp/vD1R3HhkKAFiW+1efbl5Kvn9kqD3qHzft8LE6A/srRoYCAJbpWc0L4I3VN4wMtcd8WXVt8/P8IyNDAQDL9tPNy8kXqqeODLVHPLS6qvXP/Vl6BwAY5rTqDc1LyjVZJPpY3LPpGb/V83p5ddeBuQAAqrpT9c7mZeX/NY1icWTOqS5rfj4/1vTsJQDArnDP6oPNS8tV1eMG5to096/e2/w8fqZ61MBcAABr3b9p1G+1vHy+acIIh/f46lPNz99nq8cOzAUAcFhfXl3dvMTcUP3Tgbl2uye1flmdL1TfPDAXAMDt8vDqI83LzC3Vf65OGRdt19lX/dumord6vq5rWgMQAGAj3K9pxupqqdlf/Wl13rBku8ddqle1/hx9orpgXDQAgKPzRa3fMm5/9bnq+eOiDfe0ppK37txc3lSgAQA20pnVb7W+6BzYP/hew9LtvLOqFzff2u3A8eaWdT4AgD3sB6rrW196PlM9rzpxWLqd8a3VR1t/Dm6uXlSdNCwdAMBx8KjqPR16NPDP2pvLnZxf/UGH/r4/Xn3NsHQAAMfZGdUlHboM7a9eW104KN92ekj1vzr07d791euqe4wKCACwk57a+h0vDj7+pHpG01Ipm+Th1a813dY91Pd2ZXVRm/e9AQAck1OrFzbNCD5cEbysacbwOWNi3i5nVt9dvb7DF7+bqp+t7jwkJQDALnG/Dr0e3sHHjdWrmyZTnDYi6IoTq6+tfrlpu7bbyv+W6tFDkgIA7FKPq363aceQ2ypT1zaVxudXD9vBjPer/kXTLd5P3o6c+6tLq6/L7V4AgEN6RNOo2uEmT6weH6teVv1w9Y3Vg6uTjyHDiU27lTytaau2X6jefwR59levqb7yGDIAHFf+VQrsRuc1PVf37Or+R/HxN1UfbJps8snq6urTTbeSD3ZCdXbTziV3rR5w63HqUXzNT1S/Wv1S9c6j+HgAAJr+kfqk6r9X13Rko3A7cVxf/XrTjGULOQMAbLPTqmdW/7XbXkbmeB4faRrle3Z1p+P5DQMcL24BA5vqvtVXV09pWn/vgW3/DOEbqw9Uf1W9sWmpl7/e5q8BsOMUQGCvOKGpFD7w1uPBt/73wDN+d26+5/AtTfsRX9P0jOAHmgre5bceH2x6nhAAgA118GxexQ5YrBNGBwAAYGcpgAAAC6MAAgAsjAIIALAwCiAAwMIogAAAC6MAAgAsjAIIALAwCiAAwMIogAAAC6MAAgAsjAIIALAwCiAAwMIogAAAC6MAAgAsjAIIALAwCiAAwMIogAAAC6MAAgAsjAIIALAwCiAAwMIogAAAC6MAAgAsjAIIALAwCiAAwMIogAAAC6MAAgAsjAIIALAwCiAAwMIogAAAC6MAAgAsjAIIALAwCiAAwMIogAAAC6MAAgAsjAIIALAwCiAAwMIogAAAC6MAAgAsjAIIALAwCiAAwMIogAAAC6MAAgAsjAIIALAwCiAAwMKcNDoAcNSeXT18dIgNc5eD/v+E6iWjguwRl1U/PzoEcOT2jQ4AHLVXVt80OgSL9urqG0aHAI6cW8AAAAujAAIALIxbwLC5HlmdMzrEhrmkutet/39L9dSBWfaCq6p3jg4BAHA476/233rcNDgLwDBuAQMALIwCCACwMAogAMDCKIAAAAujAAIALIwCCACwMAogAMDCKIAAAAujAAIALIwCCACwMAogAMDCKIAAAAujAAIALIwCCACwMAogAMDCKIAAAAujAAIALIwCCACwMAogAMDCKIAAAAujAAIALIwCCACwMAogAMDCKIAAAAujAAIALIwCCACwMAogAMDCKIAAAAujAAIALIwCCACwMAogAMDCKIAAAAujAAIALIwCCACwMAogAMDCKIAAAAujAAIALIwCCACwMAogAMDCKIAAAAujAAIALIwCCACwMAogAMDCKIAAAAujAAIALIwCCACwMAogAMDCKIAAAAujAAIALIwCCACwMAogAMDCKIAAAAujAAIALIwCCACwMAogAMDCKIAAAAujAAIALIwCCACwMAogAMDCKIAAAAujAAIALIwCCACwMAogAMDCKIAAAAujAAIALIwCCACwMAogAMDCKIAAAAujAAIALIwCCACwMAogAMDCKIAAAAujAAIALIwCCACwMAogAMDCKIAAAAujAAIALIwCCACwMAogAMDCKIAAAAujAAIALIwCCACwMAogAMDCKIAAAAujAAIALIwCCACwMAogAMDCKIAAAAujAAIALIwCCACwMAogAMDCKIAAAAujAAIALIwCCACwMAogAMDCKIAAAAujAAIALIwCCACwMAogAMDCKIAAAAujAAIALIwCCACwMAogAMDCKIAAAAujAAIALIwCCACwMAogAMDCKIAAAAujAAIALIwCCACwMAogAMDCKIAAAAujAAIALIwCCACwMAogAMDCKIAAAAujAAIALIwCCACwMAogAMDCKIAAAAujAAIALIwCCAAAwJ70uOq6av9Bx4ur00aGAgDg+Pi26vq2lr8Dx7uqh4yLBgDAdtpXvbC6pfXl78Dx2epfDsoIAMA2ObV6WevL3lvXvL+/ekX1RSPCAgBwbO7R+pJ3RfWIppHB51efX/NnPl49becjAwBwtB5dfaR5sXtbdc+VP/uw6v+u+bO3VD9TnbIzkQEAOFrPaD7Td3/1qx16tu8dmsreulvCb68ecHwjAwBwtJ5X3dS8xF3cdMv3tnxTdfWaj7+2evb2xwUA4GidVL2keXH7QvWcI/xc963+eM3n2t80oeSM7YkMAMDRulP1muZl7ZPVVxzl5zypadRw3WjiB6vHH1NiAACO2rnVZc1L2nvanuf2/lH14TWf/8amgmgrTQCAHXRB9bHm5eyN1dnb+HXuVP3amq+zv3p9da9t/FoAABzCd7R+W7dLOn7LtlxU/d2ar/mJ6unH6WsCANB063V1W7ebmxZ1Pt4eUr2zeQk8sGbgqTuQAQBgMU6pXtq8fH2uetYO5jitqeyt21v4HdUDdzALAMCedbfq0uaF68rqsYMy/ZPqqjWZPtfOjEYCAOxZD6re17xo/UV1n4G5qu7e+iVo9le/WX3RuGgAAJvpwupTzcvV71Vnjou1xb6mEb8bmuf8UPXEYckAADbMdzXt5LFaqn62OnFgrkO5oPUjlQfWDNyNmQEAdoUTmiZZrBapm9r9z9adVb289beE31Dde1w0AIDd6fTqFc3L02eqpw3MdaQuqq5r/fZ03zAwFwDArnKP6q3NS9MV1SMG5jpa96/e0vrRwJc1lV0AgMV6dPWR5kXpbdU9B+Y6Vic1Pf93c/Pv7a+qRw5LBgAw0DNaf7v0V5sWXd4Lvrr1+xZf3+5/rhEAYFs9t2lyx2oxurhpeZW95G5Ny9esuyX8W9XZ46IBABx/J1UvaV6EbqieMzDX8XZgzcDPN//e/7b6ynHRAACOn7Nav3vG1dVTBubaSY+pLm/9Ujcvqk4eFw0AYHudW13WvPi8p3rAwFwj3KH16x3ub5oNfd64aAAA2+OC1k+EeGPLfv7tm5tGP1fPyzXVtw/MBQBwTL6jacbrasm5pDp1YK7d4tzqTR16zcA7josGAHDkLq5uaWupubl6QXtvpu+xOLBm4LpZ0X9dPWpYMgCA2+mU6qXNy8znqmcNzLXbXVh9uEOvGag0AwC70l2rS5uXmCurxw3MtSnuXP16628Jv7Zp2zwAgF3jQdX7Wr/12f0H5tpEF1WfbX2RfurAXAAAf+/C6lPNC8vvVWeOi7XRHlq9q/k5vaVpGZlTxkUDAJbuu6ovNC8qP1udODDXXnBaU9lbnUyzv3pby1tDEQAY7ITWL2h8U9OkBbbPN1ZXNT/Xn6m+c2AuAGBBTq9e0fpC8rSBufay+zQtnn2oNQPPGJYMANjz7t60ZdlqCbmieuTAXEuwr2l09Ybm5//ypr2GAQC21aNav1bd26t7Dsy1NF9evb/5dbihaVHpE4YlAwD2lGdU1zUvHb+dLctGOKv65dbfEn5dCjkAcIye2/qtyi7ODhWjXdT6Yv7x6usG5gIANtRJ1Utaf6vxOQNzsdWDqj/PmoEAwDE6q3pN81Lx6eopA3Ox3slNI7I3N79mf1adPywZALARzq0ua/1MU4sP725fXX2s+bW7tvregbkAgF3sgtYXiDdWdxkXiyNwTvW/Wz9B5BXVncdFAwB2m2+vrm9eGi6pTh2YiyN3YM3Addv0fah64rBkAMCucXHzPWdvrl6Qmb6b7Muq9zYvgTdmzUAAWKxTqv/ZvCB8rvqWgbnYPme2fjb3/uoN1b3HRQMAdtpdqzc1LwVXVo8bmIvj41nV1c2v9yerrx+YCwDYIQ+q3te8DPxVdf+BuTi+zq0ubf2agS+pTh8XDQA4ni6sPtW8BPxe0+1C9raTmp7/W7e7y19WjxiWDAA4Li5q/czQn6tOHJiLnffk6iOtf/7z+QNzAQDb5ISmbcFWf9nflF/2S3bX6lWtnyDyyurscdEAgGNxh6YFgFd/wX+metrAXOweF1Wfbf535IrqSQNzAQBH4e7VW1v/i/2RA3Ox+zy0elfrR4kvziMCALARHlV9uPkv9LdX9xyYi93rtNY/KrC/ektmiAPArvb06trmv8R/u7rjwFxshme2fqb4NdW3DcwFABzCc1u/xMfF2daN2++Lqz9q/Wjgy/IPCQDYFfZVP976Z7ieNzAXm+vk6iea9oVe/Xtlq0AAGOys6jXNf0l/unrKwFzsDY+t/qZ/+Hv1S0PTAADdt7qsefm7vDp/YC72lrOqX6nendu/ADDUI5uWdFktf2/LTF+2376mpYUAgEFOqf62efn7zer0gbkAADiOnlR9vqn43Vy9IDN9AQD2vG9v2sbLrEwAgAX5ktEBAAAAAAAAAAAAAAAAAAAAAAAAAAAAAAAAAAAAAAAAAAAAAAAAAAAAAAAAAAAAAAAAAAAAAAAAAAAAAAAAAAAAAAAAAAAAAAAAAAAAAAAAAAAAAAAAAAAAAAAAAAAAAAAAAAAAAAAAAAAAAAAABvn/uqARSn6GUOYAAAAASUVORK5CYII=;" vertex="1" parent="1">
          <mxGeometry x="60" y="210" width="157.5" height="110" as="geometry" />
        </mxCell>
        <mxCell id="DsmTkCZuP_f7NbJFpk3H-2" value="Advertiser Web Site" style="swimlane;" vertex="1" parent="1">
          <mxGeometry x="295" y="230" width="275" height="70" as="geometry" />
        </mxCell>
        <mxCell id="DsmTkCZuP_f7NbJFpk3H-3" value="1. web page has script for audience matching." style="text;html=1;align=center;verticalAlign=middle;resizable=0;points=[];autosize=1;strokeColor=none;fillColor=none;" vertex="1" parent="DsmTkCZuP_f7NbJFpk3H-2">
          <mxGeometry y="28" width="270" height="30" as="geometry" />
        </mxCell>
        <mxCell id="DsmTkCZuP_f7NbJFpk3H-4" value="Visit" style="endArrow=classic;html=1;rounded=0;entryX=0;entryY=0.5;entryDx=0;entryDy=0;" edge="1" parent="1" source="DsmTkCZuP_f7NbJFpk3H-1" target="DsmTkCZuP_f7NbJFpk3H-2">
          <mxGeometry width="50" height="50" relative="1" as="geometry">
            <mxPoint x="390" y="390" as="sourcePoint" />
            <mxPoint x="270" y="220" as="targetPoint" />
          </mxGeometry>
        </mxCell>
        <mxCell id="DsmTkCZuP_f7NbJFpk3H-7" value="Advertiser Data Collect Service" style="swimlane;" vertex="1" parent="1">
          <mxGeometry x="590" y="140" width="235" height="70" as="geometry" />
        </mxCell>
        <mxCell id="DsmTkCZuP_f7NbJFpk3H-8" value="2. Store tracking data in &lt;br&gt;third party cookies and Mongo DB." style="text;html=1;align=center;verticalAlign=middle;resizable=0;points=[];autosize=1;strokeColor=none;fillColor=none;" vertex="1" parent="DsmTkCZuP_f7NbJFpk3H-7">
          <mxGeometry x="12.5" y="25" width="210" height="40" as="geometry" />
        </mxCell>
        <mxCell id="DsmTkCZuP_f7NbJFpk3H-9" value="" style="endArrow=classic;html=1;rounded=0;exitX=1;exitY=0.25;exitDx=0;exitDy=0;entryX=0.25;entryY=1;entryDx=0;entryDy=0;" edge="1" parent="1" source="DsmTkCZuP_f7NbJFpk3H-2" target="DsmTkCZuP_f7NbJFpk3H-7">
          <mxGeometry width="50" height="50" relative="1" as="geometry">
            <mxPoint x="390" y="380" as="sourcePoint" />
            <mxPoint x="440" y="330" as="targetPoint" />
            <Array as="points">
              <mxPoint x="649" y="248" />
            </Array>
          </mxGeometry>
        </mxCell>
        <mxCell id="DsmTkCZuP_f7NbJFpk3H-13" value="" style="endArrow=classic;html=1;rounded=0;exitX=0.75;exitY=1;exitDx=0;exitDy=0;entryX=1;entryY=0.75;entryDx=0;entryDy=0;" edge="1" parent="1" source="DsmTkCZuP_f7NbJFpk3H-7" target="DsmTkCZuP_f7NbJFpk3H-2">
          <mxGeometry width="50" height="50" relative="1" as="geometry">
            <mxPoint x="440" y="310" as="sourcePoint" />
            <mxPoint x="560" y="370" as="targetPoint" />
            <Array as="points">
              <mxPoint x="766" y="280" />
            </Array>
          </mxGeometry>
        </mxCell>
        <mxCell id="DsmTkCZuP_f7NbJFpk3H-14" value="3, Response &lt;br&gt;( Google User ID, buyer cookie )" style="text;html=1;strokeColor=none;fillColor=none;align=center;verticalAlign=middle;whiteSpace=wrap;rounded=0;" vertex="1" parent="1">
          <mxGeometry x="548" y="288" width="210" height="30" as="geometry" />
        </mxCell>
        <mxCell id="DsmTkCZuP_f7NbJFpk3H-17" value="" style="endArrow=classic;html=1;rounded=0;exitX=0.5;exitY=1;exitDx=0;exitDy=0;entryX=0.5;entryY=0;entryDx=0;entryDy=0;" edge="1" parent="1" source="DsmTkCZuP_f7NbJFpk3H-2" target="DsmTkCZuP_f7NbJFpk3H-18">
          <mxGeometry width="50" height="50" relative="1" as="geometry">
            <mxPoint x="630" y="350" as="sourcePoint" />
            <mxPoint x="412.5" y="360" as="targetPoint" />
          </mxGeometry>
        </mxCell>
        <mxCell id="DsmTkCZuP_f7NbJFpk3H-18" value="&lt;b&gt;Google Cookie Matching Service&lt;/b&gt;" style="rounded=0;whiteSpace=wrap;html=1;" vertex="1" parent="1">
          <mxGeometry x="315" y="380" width="235" height="60" as="geometry" />
        </mxCell>
        <mxCell id="DsmTkCZuP_f7NbJFpk3H-20" value="4. Redierct to&amp;nbsp;&lt;br&gt;cm.g.doubleclick.net/pixel?google_nid=enliple_tw&amp;amp;google_hm={buyer cookie}&lt;br&gt;( using Base64 encoding )" style="text;html=1;strokeColor=none;fillColor=none;align=center;verticalAlign=middle;whiteSpace=wrap;rounded=0;" vertex="1" parent="1">
          <mxGeometry x="414" y="347" width="436" height="30" as="geometry" />
        </mxCell>
      </root>
    </mxGraphModel>
  </diagram>
</mxfile>
